<mxfile host="app.diagrams.net" agent="Mozilla/5.0 (Macintosh; Intel Mac OS X 10_15_7) AppleWebKit/605.1.15 (KHTML, like Gecko) Version/18.2 Safari/605.1.15" version="26.0.6">
  <diagram name="Pagina-1" id="CEtmXKXBpQeazpoTnXLW">
    <mxGraphModel grid="1" page="1" gridSize="10" guides="1" tooltips="1" connect="1" arrows="1" fold="1" pageScale="1" pageWidth="827" pageHeight="1169" math="0" shadow="0">
      <root>
        <mxCell id="0" />
        <mxCell id="1" parent="0" />
        <mxCell id="4BkYFdHEoDKxAdIRVf8H-1" value="&lt;div&gt;&lt;b&gt;Esercizio3&lt;/b&gt;: Creare un diagramma di flusso che prenda in input un numero intero n.&amp;nbsp;&lt;br&gt;&lt;/div&gt;&lt;div&gt;Il programma dovrà poi chiedere n-numeri interi in input.&lt;/div&gt;&lt;div&gt;Il programma dovrà eseguire la media tra gli n-numeri inseriti dall&#39;utente.&lt;/div&gt;&lt;div&gt;Stampare il risultato.&lt;/div&gt;&lt;div&gt;&lt;br&gt;&lt;/div&gt;&lt;div&gt;Esempio: Se n = 5 ed ipotizziamo che l&#39;utente inserisca 6, 4, 2, 3 e 1. La media tra questi numeri è 3,2 .&lt;/div&gt;&lt;div&gt;Questo perché la somma tra i valori inseriti è 16 e 16/5 = 3,2 .&lt;/div&gt;" style="text;html=1;align=center;verticalAlign=middle;resizable=0;points=[];autosize=1;strokeColor=none;fillColor=none;fontSize=16;" vertex="1" parent="1">
          <mxGeometry x="34" y="40" width="760" height="150" as="geometry" />
        </mxCell>
        <mxCell id="FAgFWN2JOPpdHGK5piLw-3" value="" style="edgeStyle=orthogonalEdgeStyle;rounded=0;orthogonalLoop=1;jettySize=auto;html=1;fontSize=16;" edge="1" parent="1" source="FAgFWN2JOPpdHGK5piLw-1" target="FAgFWN2JOPpdHGK5piLw-2">
          <mxGeometry relative="1" as="geometry" />
        </mxCell>
        <mxCell id="FAgFWN2JOPpdHGK5piLw-1" value="" style="ellipse;whiteSpace=wrap;html=1;aspect=fixed;" vertex="1" parent="1">
          <mxGeometry x="384" y="190" width="60" height="60" as="geometry" />
        </mxCell>
        <mxCell id="FAgFWN2JOPpdHGK5piLw-5" value="" style="edgeStyle=orthogonalEdgeStyle;rounded=0;orthogonalLoop=1;jettySize=auto;html=1;fontSize=16;" edge="1" parent="1" source="FAgFWN2JOPpdHGK5piLw-2" target="FAgFWN2JOPpdHGK5piLw-4">
          <mxGeometry relative="1" as="geometry" />
        </mxCell>
        <mxCell id="FAgFWN2JOPpdHGK5piLw-2" value="n, somma = 0,&lt;div&gt;&amp;nbsp;i = 1, val, media&lt;/div&gt;" style="shape=hexagon;perimeter=hexagonPerimeter2;whiteSpace=wrap;html=1;fixedSize=1;fontSize=16;" vertex="1" parent="1">
          <mxGeometry x="331" y="270" width="166" height="80" as="geometry" />
        </mxCell>
        <mxCell id="FAgFWN2JOPpdHGK5piLw-7" value="" style="edgeStyle=orthogonalEdgeStyle;rounded=0;orthogonalLoop=1;jettySize=auto;html=1;fontSize=16;" edge="1" parent="1" source="FAgFWN2JOPpdHGK5piLw-4" target="FAgFWN2JOPpdHGK5piLw-6">
          <mxGeometry relative="1" as="geometry" />
        </mxCell>
        <mxCell id="FAgFWN2JOPpdHGK5piLw-4" value="n" style="shape=parallelogram;perimeter=parallelogramPerimeter;whiteSpace=wrap;html=1;fixedSize=1;fillColor=#d5e8d4;strokeColor=#82b366;fontSize=16;" vertex="1" parent="1">
          <mxGeometry x="354" y="380" width="120" height="60" as="geometry" />
        </mxCell>
        <mxCell id="FAgFWN2JOPpdHGK5piLw-9" value="" style="edgeStyle=orthogonalEdgeStyle;rounded=0;orthogonalLoop=1;jettySize=auto;html=1;fontSize=16;" edge="1" parent="1" source="FAgFWN2JOPpdHGK5piLw-6" target="FAgFWN2JOPpdHGK5piLw-8">
          <mxGeometry relative="1" as="geometry" />
        </mxCell>
        <mxCell id="FAgFWN2JOPpdHGK5piLw-6" value="" style="ellipse;whiteSpace=wrap;html=1;fontSize=16;" vertex="1" parent="1">
          <mxGeometry x="394" y="470" width="40" height="40" as="geometry" />
        </mxCell>
        <mxCell id="FAgFWN2JOPpdHGK5piLw-13" value="" style="edgeStyle=orthogonalEdgeStyle;rounded=0;orthogonalLoop=1;jettySize=auto;html=1;fontSize=16;" edge="1" parent="1" source="FAgFWN2JOPpdHGK5piLw-8" target="FAgFWN2JOPpdHGK5piLw-12">
          <mxGeometry relative="1" as="geometry" />
        </mxCell>
        <mxCell id="FAgFWN2JOPpdHGK5piLw-20" value="" style="edgeStyle=orthogonalEdgeStyle;rounded=0;orthogonalLoop=1;jettySize=auto;html=1;fontSize=16;" edge="1" parent="1" source="FAgFWN2JOPpdHGK5piLw-8">
          <mxGeometry relative="1" as="geometry">
            <mxPoint x="260.02857142857135" y="630" as="targetPoint" />
          </mxGeometry>
        </mxCell>
        <mxCell id="FAgFWN2JOPpdHGK5piLw-8" value="i &amp;lt;= n" style="rhombus;whiteSpace=wrap;html=1;fontSize=16;" vertex="1" parent="1">
          <mxGeometry x="374" y="544.5" width="80" height="80" as="geometry" />
        </mxCell>
        <mxCell id="FAgFWN2JOPpdHGK5piLw-15" value="" style="edgeStyle=orthogonalEdgeStyle;rounded=0;orthogonalLoop=1;jettySize=auto;html=1;fontSize=16;" edge="1" parent="1" source="FAgFWN2JOPpdHGK5piLw-12" target="FAgFWN2JOPpdHGK5piLw-14">
          <mxGeometry relative="1" as="geometry" />
        </mxCell>
        <mxCell id="FAgFWN2JOPpdHGK5piLw-12" value="val" style="shape=parallelogram;perimeter=parallelogramPerimeter;whiteSpace=wrap;html=1;fixedSize=1;fillColor=#d5e8d4;strokeColor=#82b366;fontSize=16;" vertex="1" parent="1">
          <mxGeometry x="514" y="630" width="120" height="60" as="geometry" />
        </mxCell>
        <mxCell id="FAgFWN2JOPpdHGK5piLw-17" value="" style="edgeStyle=orthogonalEdgeStyle;rounded=0;orthogonalLoop=1;jettySize=auto;html=1;fontSize=16;" edge="1" parent="1" source="FAgFWN2JOPpdHGK5piLw-14" target="FAgFWN2JOPpdHGK5piLw-16">
          <mxGeometry relative="1" as="geometry" />
        </mxCell>
        <mxCell id="FAgFWN2JOPpdHGK5piLw-14" value="somma = somma + val" style="whiteSpace=wrap;html=1;fontSize=16;" vertex="1" parent="1">
          <mxGeometry x="490" y="720" width="168" height="60" as="geometry" />
        </mxCell>
        <mxCell id="FAgFWN2JOPpdHGK5piLw-18" style="edgeStyle=orthogonalEdgeStyle;rounded=0;orthogonalLoop=1;jettySize=auto;html=1;entryX=1;entryY=0.5;entryDx=0;entryDy=0;fontSize=16;" edge="1" parent="1" source="FAgFWN2JOPpdHGK5piLw-16" target="FAgFWN2JOPpdHGK5piLw-6">
          <mxGeometry relative="1" as="geometry">
            <Array as="points">
              <mxPoint x="680" y="840" />
              <mxPoint x="680" y="490" />
            </Array>
          </mxGeometry>
        </mxCell>
        <mxCell id="FAgFWN2JOPpdHGK5piLw-16" value="i = i + 1" style="whiteSpace=wrap;html=1;fontSize=16;" vertex="1" parent="1">
          <mxGeometry x="514" y="810" width="120" height="60" as="geometry" />
        </mxCell>
        <mxCell id="FAgFWN2JOPpdHGK5piLw-23" value="i" style="text;html=1;align=center;verticalAlign=middle;resizable=0;points=[];autosize=1;strokeColor=none;fillColor=none;fontSize=16;" vertex="1" parent="1">
          <mxGeometry x="454" y="350" width="30" height="30" as="geometry" />
        </mxCell>
        <mxCell id="FAgFWN2JOPpdHGK5piLw-24" value="i" style="text;html=1;align=center;verticalAlign=middle;resizable=0;points=[];autosize=1;strokeColor=none;fillColor=none;fontSize=16;" vertex="1" parent="1">
          <mxGeometry x="605" y="598" width="30" height="30" as="geometry" />
        </mxCell>
        <mxCell id="sSOiOeHMd48z789hNSGK-1" value="V" style="text;html=1;align=center;verticalAlign=middle;resizable=0;points=[];autosize=1;strokeColor=none;fillColor=none;" vertex="1" parent="1">
          <mxGeometry x="545" y="558" width="30" height="30" as="geometry" />
        </mxCell>
        <mxCell id="sSOiOeHMd48z789hNSGK-2" value="F" style="text;html=1;align=center;verticalAlign=middle;resizable=0;points=[];autosize=1;strokeColor=none;fillColor=none;" vertex="1" parent="1">
          <mxGeometry x="255" y="558" width="30" height="30" as="geometry" />
        </mxCell>
        <mxCell id="sSOiOeHMd48z789hNSGK-8" value="" style="edgeStyle=orthogonalEdgeStyle;rounded=0;orthogonalLoop=1;jettySize=auto;html=1;" edge="1" parent="1" source="sSOiOeHMd48z789hNSGK-6" target="sSOiOeHMd48z789hNSGK-7">
          <mxGeometry relative="1" as="geometry" />
        </mxCell>
        <mxCell id="sSOiOeHMd48z789hNSGK-6" value="media = somma / n" style="rounded=0;whiteSpace=wrap;html=1;" vertex="1" parent="1">
          <mxGeometry x="200" y="630" width="120" height="60" as="geometry" />
        </mxCell>
        <mxCell id="sSOiOeHMd48z789hNSGK-11" value="" style="edgeStyle=orthogonalEdgeStyle;rounded=0;orthogonalLoop=1;jettySize=auto;html=1;" edge="1" parent="1" source="sSOiOeHMd48z789hNSGK-7" target="sSOiOeHMd48z789hNSGK-10">
          <mxGeometry relative="1" as="geometry" />
        </mxCell>
        <mxCell id="sSOiOeHMd48z789hNSGK-7" value="&quot;La media è: &quot;+ media" style="shape=parallelogram;perimeter=parallelogramPerimeter;whiteSpace=wrap;html=1;fixedSize=1;rounded=0;fillColor=#f8cecc;strokeColor=#b85450;" vertex="1" parent="1">
          <mxGeometry x="175" y="720" width="170" height="60" as="geometry" />
        </mxCell>
        <mxCell id="sSOiOeHMd48z789hNSGK-9" value="o" style="text;html=1;align=center;verticalAlign=middle;resizable=0;points=[];autosize=1;strokeColor=none;fillColor=none;" vertex="1" parent="1">
          <mxGeometry x="295" y="698" width="30" height="30" as="geometry" />
        </mxCell>
        <mxCell id="sSOiOeHMd48z789hNSGK-10" value="" style="ellipse;whiteSpace=wrap;html=1;rounded=0;aspect=fixed;fillColor=#000000;" vertex="1" parent="1">
          <mxGeometry x="230" y="820" width="60" height="60" as="geometry" />
        </mxCell>
      </root>
    </mxGraphModel>
  </diagram>
</mxfile>
